<?xml version="1.0" encoding="UTF-8" standalone="no"?>
<!-- Created with Inkscape (http://www.inkscape.org/) -->

<svg
   version="1.1"
   id="svg9"
   width="367.71124"
   height="267.6369"
   viewBox="0 0 367.71124 267.6369"
   xmlns="http://www.w3.org/2000/svg"
   xmlns:svg="http://www.w3.org/2000/svg">
  <defs
     id="defs13">
    <clipPath
       clipPathUnits="userSpaceOnUse"
       id="clipPath129">
      <path
         d="M 0,841.89 H 1190.55 V 0 H 0 Z"
         id="path127" />
    </clipPath>
  </defs>
  <g
     id="g15"
     transform="matrix(1.3333333,0,0,-1.3333333,-855.36677,798.51529)">
    <g
       id="g123">
      <g
         id="g125"
         clip-path="url(#clipPath129)">
        <g
           id="g131"
           transform="translate(703.7001,429.1796)">
          <path
             d="m 0,0 c -20.494,0 -35.981,5.157 -46.458,15.469 -10.479,10.314 -15.717,25.585 -15.717,45.814 v 105.51 h 32.029 V 70.406 c 0,-13.817 2.363,-23.749 7.09,-29.798 4.726,-6.049 12.412,-9.074 23.056,-9.074 10.709,0 18.411,3.025 23.104,9.074 4.694,6.049 7.042,15.981 7.042,29.798 v 96.387 H 62.275 V 61.283 c 0,-20.229 -5.241,-35.5 -15.717,-45.814 C 36.078,5.157 20.559,0 0,0"
             style="fill:#bdbcbc;fill-opacity:1;fill-rule:nonzero;stroke:none"
             id="path133" />
        </g>
        <g
           id="g135"
           transform="translate(813.8749,564.6544)">
          <path
             d="m 0,0 c 2.871,-0.714 5.652,-1.379 8.38,-1.925 1.607,2.05 2.093,4.899 1.189,7.782 L 9.571,5.858 9.569,5.857 C 8.455,9.432 6.618,11.433 4.105,11.801 -0.299,12.449 -6.271,7.994 -9.501,3.315 -9.769,2.931 -10.057,2.488 -10.367,1.996 -8.38,1.468 -6.254,1.122 -4.289,0.803 -2.722,0.549 -1.237,0.308 0,0"
             style="fill:#00837c;fill-opacity:1;fill-rule:nonzero;stroke:none"
             id="path137" />
        </g>
        <g
           id="g139"
           transform="translate(803.2505,561.3051)">
          <path
             d="m 0,0 c 0.07,0.03 0.146,0.059 0.218,0.087 2.849,1.091 5.29,0.303 7.657,-0.461 1.148,-0.372 2.23,-0.722 3.364,-0.869 2.297,-0.301 4.156,-0.023 5.669,0.835 C 14.673,0.072 12.402,0.62 10.075,1.199 8.923,1.485 7.485,1.719 5.963,1.966 3.799,2.319 1.346,2.714 -0.966,3.389 -1.372,2.734 -1.805,2.041 -2.255,1.332 -1.53,1.006 -0.749,0.56 0,0"
             style="fill:#00837c;fill-opacity:1;fill-rule:nonzero;stroke:none"
             id="path141" />
        </g>
        <g
           id="g143"
           transform="translate(800.5507,556.024)">
          <path
             d="M 0,0 C -0.26,-0.658 -0.24,-1.264 0.054,-1.851 0.383,-2.507 0.91,-2.796 1.613,-2.715 2.472,-2.611 3.506,-1.898 3.752,-0.876 4.049,0.358 3.393,1.593 2.386,2.615 1.362,1.956 0.397,1.013 0,0"
             style="fill:#00837c;fill-opacity:1;fill-rule:nonzero;stroke:none"
             id="path145" />
        </g>
        <g
           id="g147"
           transform="translate(791.3344,558.3332)">
          <path
             d="m 0,0 c -1.553,-1.595 -2.24,-3.722 -2.453,-5.907 2.966,1.28 5.998,5.058 8.52,8.778 C 3.69,2.856 1.479,1.519 0,0"
             style="fill:#00837c;fill-opacity:1;fill-rule:nonzero;stroke:none"
             id="path149" />
        </g>
        <g
           id="g151"
           transform="translate(884.6677,479.5729)">
          <path
             d="M 0,0 0.493,-1.813 2.32,-1.316 1.828,0.497 Z"
             style="fill:#00837c;fill-opacity:1;fill-rule:nonzero;stroke:none"
             id="path153" />
        </g>
        <g
           id="g155"
           transform="translate(798.3522,568.875)">
          <path
             d="M 0,0 C 1,0.727 1.887,1.839 2.327,3.037 2.67,3.962 2.875,5.291 1.922,6.378 1.154,7.251 0.245,7.228 -0.379,7.058 -0.59,7.001 -0.763,6.928 -0.889,6.866 -1.917,6.374 -2.835,5.217 -2.607,3.96 -2.298,2.255 -1.345,0.979 0,0"
             style="fill:#00837c;fill-opacity:1;fill-rule:nonzero;stroke:none"
             id="path157" />
        </g>
        <g
           id="g159"
           transform="translate(888.588,478.6917)">
          <path
             d="m 0,0 -1.6,-0.435 0.432,-1.587 c -0.535,-0.371 -1.179,-0.546 -1.828,-0.497 l -0.431,1.587 -1.602,-0.435 c -0.372,0.526 -0.547,1.171 -0.492,1.813 l 1.601,0.435 -0.432,1.587 c 0.534,0.374 1.179,0.549 1.828,0.497 l 0.431,-1.587 1.6,0.435 C -0.119,1.284 0.056,0.642 0,0 M -1.267,2.809 C -2.7,3.62 -4.534,3.12 -5.359,1.697 c -0.824,-1.428 -0.329,-3.249 1.103,-4.058 1.433,-0.812 3.267,-0.313 4.092,1.113 0.825,1.422 0.33,3.243 -1.103,4.057"
             style="fill:#00837c;fill-opacity:1;fill-rule:nonzero;stroke:none"
             id="path161" />
        </g>
        <g
           id="g163"
           transform="translate(885.4352,525.4991)">
          <path
             d="m 0,0 c 0.374,-0.529 0.549,-1.171 0.493,-1.813 l -1.601,-0.435 0.431,-1.587 c -0.532,-0.374 -1.177,-0.549 -1.827,-0.497 l -0.431,1.584 1.827,0.5 -0.493,1.813 -1.827,-0.5 -0.432,1.587 c 0.535,0.374 1.18,0.549 1.828,0.497 l 0.431,-1.584 z m -4.536,-3.18 c -0.373,0.525 -0.548,1.167 -0.492,1.81 l 1.601,0.435 0.493,-1.81 z m -0.33,3.064 c -0.825,-1.428 -0.33,-3.249 1.104,-4.061 1.433,-0.811 3.266,-0.312 4.091,1.113 0.827,1.426 0.332,3.247 -1.104,4.06 -1.432,0.809 -3.266,0.311 -4.091,-1.112"
             style="fill:#00837c;fill-opacity:1;fill-rule:nonzero;stroke:none"
             id="path165" />
        </g>
        <g
           id="g167"
           transform="translate(860.6484,473.0421)">
          <path
             d="M 0,0 0.493,-1.813 2.323,-1.316 1.83,0.497 Z"
             style="fill:#00837c;fill-opacity:1;fill-rule:nonzero;stroke:none"
             id="path169" />
        </g>
        <g
           id="g171"
           transform="translate(786.6191,551.9783)">
          <path
             d="m 0,0 c 0.171,2.836 0.995,5.714 3.115,7.889 2.115,2.174 5.469,4.026 9.054,3.444 0.473,0.738 0.92,1.452 1.335,2.12 -0.641,0.258 -1.256,0.543 -1.84,0.865 -0.463,-0.203 -0.936,-0.345 -1.407,-0.423 -2.276,-0.361 -4.416,0.193 -6.482,0.727 -2.141,0.557 -4.161,1.079 -6.173,0.557 l -0.075,-0.02 C -4.166,14.698 -5.416,13.636 -6.086,12.08 -7.016,9.919 -6.778,7.031 -5.477,4.726 -3.772,1.704 -1.928,0.126 0,0"
             style="fill:#00837c;fill-opacity:1;fill-rule:nonzero;stroke:none"
             id="path173" />
        </g>
        <g
           id="g175"
           transform="translate(877.2521,472.1789)">
          <path
             d="M 0,0 -1.601,-0.435 -1.17,-2.02 c -0.533,-0.373 -1.178,-0.548 -1.828,-0.497 l -0.431,1.585 1.828,0.497 -0.493,1.813 -1.826,-0.497 0.492,-1.811 -1.603,-0.435 c -0.372,0.526 -0.546,1.168 -0.492,1.81 l 1.601,0.436 -0.431,1.586 c 0.534,0.375 1.179,0.55 1.827,0.497 l 0.432,-1.586 1.601,0.435 C -0.119,1.287 0.055,0.645 0,0 M -1.268,2.809 C -2.701,3.62 -4.534,3.122 -5.36,1.697 c -0.825,-1.426 -0.33,-3.244 1.103,-4.056 1.434,-0.814 3.268,-0.315 4.092,1.113 0.824,1.425 0.33,3.243 -1.103,4.055"
             style="fill:#00837c;fill-opacity:1;fill-rule:nonzero;stroke:none"
             id="path177" />
        </g>
        <g
           id="g179"
           transform="translate(864.5737,472.1623)">
          <path
             d="m 0,0 -1.603,-0.436 0.432,-1.586 C -1.705,-2.393 -2.353,-2.57 -3.001,-2.52 l -0.431,1.587 -1.6,-0.435 c -0.371,0.526 -0.546,1.171 -0.493,1.813 l 1.6,0.435 -0.432,1.587 c 0.533,0.373 1.182,0.55 1.83,0.497 l 0.431,-1.587 1.603,0.436 C -0.124,1.283 0.05,0.641 0,0 m -1.268,2.809 c -1.433,0.811 -3.269,0.31 -4.092,-1.112 -0.824,-1.428 -0.329,-3.249 1.104,-4.058 1.43,-0.813 3.267,-0.313 4.089,1.112 0.825,1.422 0.33,3.244 -1.101,4.058"
             style="fill:#00837c;fill-opacity:1;fill-rule:nonzero;stroke:none"
             id="path181" />
        </g>
        <g
           id="g183"
           transform="translate(886.8481,500.4412)">
          <path
             d="M 0,0 C -0.374,0.526 -0.548,1.168 -0.492,1.811 L 1.109,2.246 1.601,0.435 Z M 2.503,4.329 2.935,2.743 4.536,3.178 C 4.91,2.652 5.084,2.01 5.029,1.367 L 3.427,0.932 3.859,-0.655 C 3.326,-1.028 2.681,-1.203 2.031,-1.152 L 1.6,0.433 3.427,0.932 2.935,2.743 1.107,2.246 0.675,3.835 C 1.21,4.207 1.855,4.382 2.503,4.329 M 4.864,0.119 C 5.691,1.542 5.196,3.363 3.761,4.174 2.328,4.988 0.494,4.49 -0.33,3.062 -1.155,1.636 -0.66,-0.185 0.773,-0.994 2.206,-1.808 4.039,-1.306 4.864,0.119"
             style="fill:#00837c;fill-opacity:1;fill-rule:nonzero;stroke:none"
             id="path185" />
        </g>
        <g
           id="g187"
           transform="translate(882.8391,578.6466)">
          <path
             d="M 0,0 C 0.905,0.701 1.659,1.551 2.46,2.452 2.504,2.501 2.548,2.551 2.592,2.6 2.072,3.016 1.554,3.436 1.024,3.839 0.566,3.442 0.137,3.057 -0.233,2.695 -1.946,1.017 -3.627,-0.604 -5.311,-2.15 -3.574,-2.126 -1.828,-1.424 0,0"
             style="fill:#00837c;fill-opacity:1;fill-rule:nonzero;stroke:none"
             id="path189" />
        </g>
        <g
           id="g191"
           transform="translate(874.7715,577.0096)">
          <path
             d="M 0,0 C 2.083,1.857 4.152,3.832 6.273,5.908 6.574,6.202 6.909,6.506 7.256,6.815 3.77,9.311 0.093,11.542 -3.788,13.487 -5.314,11.865 -5.709,9.395 -4.945,6.113 -4.266,3.176 -2.417,0.957 0,0"
             style="fill:#00837c;fill-opacity:1;fill-rule:nonzero;stroke:none"
             id="path193" />
        </g>
        <g
           id="g195"
           transform="translate(865.6627,543.1459)">
          <path
             d="m 0,0 1.597,0.434 -0.432,1.59 c 0.534,0.373 1.182,0.549 1.832,0.498 l 0.432,-1.59 1.6,0.435 C 5.402,0.841 5.576,0.202 5.521,-0.443 l -1.6,-0.435 0.432,-1.59 C 3.819,-2.839 3.173,-3.014 2.525,-2.962 L 2.093,-1.375 3.921,-0.878 3.429,0.932 1.598,0.435 2.095,-1.374 0.492,-1.81 C 0.118,-1.282 -0.056,-0.643 0,0 M 1.266,-2.807 C 2.699,-3.619 4.533,-3.12 5.358,-1.694 6.182,-0.269 5.687,1.552 4.254,2.364 2.821,3.178 0.987,2.679 0.162,1.251 -0.662,-0.175 -0.167,-1.996 1.266,-2.807"
             style="fill:#00837c;fill-opacity:1;fill-rule:nonzero;stroke:none"
             id="path197" />
        </g>
        <g
           id="g199"
           transform="translate(897.9079,510.0587)">
          <path
             d="m 0,0 -61.481,-16.716 c -0.159,0.375 -0.311,0.757 -0.459,1.143 -0.611,1.592 -1.151,3.242 -1.611,4.934 -0.461,1.698 -0.83,3.389 -1.11,5.074 L -2.907,11.226 C -2.295,9.631 -1.756,7.986 -1.295,6.289 -0.835,4.597 -0.465,2.9 -0.185,1.218 -0.117,0.81 -0.054,0.404 0,0 m -11.646,-6.411 c 0.908,1.57 2.922,2.118 4.497,1.223 1.577,-0.891 2.12,-2.888 1.212,-4.458 -0.904,-1.571 -2.918,-2.118 -4.497,-1.222 -1.576,0.894 -2.119,2.891 -1.212,4.457 m -42.096,-11.446 c 0.904,1.571 2.919,2.119 4.497,1.223 1.578,-0.891 2.121,-2.887 1.212,-4.457 -0.908,-1.57 -2.923,-2.117 -4.497,-1.223 -1.578,0.894 -2.121,2.89 -1.212,4.457 m 53.906,5.575 c -0.469,-3.985 -1.454,-7.765 -2.901,-11.219 l -44.487,-12.096 c -2.994,2.246 -5.758,5.007 -8.181,8.206 -0.328,0.43 -0.65,0.872 -0.961,1.319 l 56.691,15.414 c -0.042,-0.543 -0.096,-1.087 -0.161,-1.624 m -9.389,-20.48 c -0.908,-1.57 -2.92,-2.117 -4.498,-1.223 -1.577,0.893 -2.12,2.89 -1.213,4.459 0.909,1.57 2.921,2.117 4.499,1.221 1.578,-0.891 2.121,-2.888 1.212,-4.457 m -11.337,-6.511 c -0.908,-1.572 -2.922,-2.12 -4.498,-1.223 -1.578,0.894 -2.121,2.891 -1.212,4.458 0.905,1.569 2.919,2.116 4.498,1.222 1.577,-0.891 2.12,-2.887 1.212,-4.457 m -12.679,-0.019 c -0.909,-1.57 -2.923,-2.118 -4.501,-1.224 -1.574,0.894 -2.117,2.891 -1.213,4.46 0.909,1.57 2.923,2.117 4.502,1.221 1.573,-0.892 2.116,-2.889 1.212,-4.457 M -53.992,0.783 c -0.905,-1.569 -2.92,-2.117 -4.498,-1.226 -1.578,0.896 -2.12,2.891 -1.212,4.461 0.908,1.572 2.923,2.12 4.498,1.223 1.578,-0.894 2.12,-2.889 1.212,-4.458 m 42.107,11.449 c -0.905,-1.569 -2.919,-2.117 -4.498,-1.223 -1.575,0.894 -2.118,2.888 -1.212,4.458 0.908,1.572 2.922,2.119 4.497,1.222 1.578,-0.894 2.121,-2.888 1.213,-4.457 M -65.172,6.283 c 0.035,0.439 0.076,0.871 0.125,1.303 0.452,4.107 1.446,8.001 2.932,11.547 l 44.509,12.102 c 3.071,-2.307 5.903,-5.16 8.372,-8.473 0.261,-0.348 0.517,-0.699 0.768,-1.061 z m 8.772,21.661 c 0.904,1.568 2.919,2.116 4.498,1.223 1.574,-0.894 2.117,-2.892 1.213,-4.461 -0.909,-1.572 -2.924,-2.12 -4.498,-1.223 -1.579,0.894 -2.122,2.891 -1.213,4.461 m 11.338,6.51 c 0.904,1.569 2.92,2.117 4.498,1.223 1.574,-0.894 2.117,-2.891 1.214,-4.462 -0.91,-1.568 -2.925,-2.116 -4.499,-1.224 -1.579,0.896 -2.122,2.894 -1.213,4.463 m 12.722,0.032 c 0.906,1.566 2.921,2.114 4.498,1.223 1.578,-0.893 2.121,-2.891 1.213,-4.461 -0.908,-1.569 -2.923,-2.117 -4.498,-1.223 -1.577,0.894 -2.121,2.892 -1.213,4.461 m -11.403,3.904 c -17.85,-4.853 -27.378,-26.982 -21.275,-49.428 6.102,-22.443 25.525,-36.705 43.375,-31.852 17.855,4.855 27.377,26.988 21.275,49.43 -6.103,22.446 -25.52,36.705 -43.375,31.85"
             style="fill:#00837c;fill-opacity:1;fill-rule:nonzero;stroke:none"
             id="path201" />
        </g>
        <g
           id="g203"
           transform="translate(843.3284,514.0472)">
          <path
             d="m 0,0 c 0.374,-0.526 0.547,-1.165 0.493,-1.813 l -1.6,-0.435 0.431,-1.584 c -0.533,-0.374 -1.178,-0.549 -1.828,-0.497 l -0.43,1.584 1.827,0.497 -0.493,1.813 -1.827,-0.497 0.492,-1.81 -1.601,-0.435 c -0.372,0.526 -0.547,1.168 -0.492,1.81 l 1.601,0.435 -0.432,1.588 c 0.534,0.373 1.179,0.549 1.828,0.496 L -1.6,-0.435 Z m -4.865,-0.116 c -0.825,-1.425 -0.33,-3.246 1.103,-4.058 1.433,-0.811 3.267,-0.312 4.092,1.113 0.825,1.426 0.329,3.246 -1.103,4.058 -1.434,0.811 -3.268,0.313 -4.092,-1.113"
             style="fill:#00837c;fill-opacity:1;fill-rule:nonzero;stroke:none"
             id="path205" />
        </g>
        <g
           id="g207"
           transform="translate(852.9401,543.1147)">
          <path
             d="M 0,0 1.601,0.435 2.09,-1.376 3.92,-0.879 3.427,0.932 5.028,1.367 C 5.399,0.84 5.574,0.198 5.521,-0.444 L 3.92,-0.879 4.352,-2.469 C 3.818,-2.84 3.17,-3.016 2.522,-2.966 L 2.09,-1.376 0.492,-1.811 C 0.119,-1.285 -0.055,-0.643 0,0 M 2.997,2.521 3.428,0.935 1.6,0.438 1.169,2.024 C 1.702,2.395 2.347,2.571 2.997,2.521 M 1.266,-2.804 C 2.695,-3.619 4.534,-3.12 5.358,-1.692 6.183,-0.269 5.688,1.552 4.255,2.363 2.822,3.175 0.984,2.675 0.164,1.248 -0.662,-0.174 -0.167,-1.995 1.266,-2.804"
             style="fill:#00837c;fill-opacity:1;fill-rule:nonzero;stroke:none"
             id="path209" />
        </g>
        <g
           id="g211"
           transform="translate(914.6437,492.7308)">
          <path
             d="m 0,0 -0.035,0.027 c -1.545,0.815 -3.277,1.079 -4.959,0.622 -4.011,-1.091 -6.203,-5.881 -4.895,-10.691 0.58,-2.134 1.751,-3.915 3.221,-5.14 l 0.018,0.019 c -0.352,0.3 -0.615,0.703 -0.744,1.176 -0.346,1.274 0.411,2.582 1.692,2.93 0.749,0.204 1.505,0.026 2.077,-0.406 1.524,3.711 2.772,7.517 3.742,11.421 C 0.08,-0.026 0.035,-0.018 0,0"
             style="fill:#00837c;fill-opacity:1;fill-rule:nonzero;stroke:none"
             id="path213" />
        </g>
        <g
           id="g215"
           transform="translate(841.6,536.6033)">
          <path
             d="M 0,0 1.604,0.436 1.171,2.028 C 1.705,2.399 2.35,2.574 2.998,2.522 L 3.43,0.933 5.032,1.368 C 5.404,0.842 5.578,0.202 5.524,-0.442 L 3.922,-0.878 4.354,-2.464 C 3.821,-2.836 3.171,-3.012 2.525,-2.962 L 2.093,-1.375 3.922,-0.878 3.43,0.933 1.604,0.436 2.092,-1.375 0.496,-1.809 C 0.122,-1.281 -0.052,-0.641 0,0 M 1.268,-2.803 C 2.697,-3.616 4.535,-3.116 5.36,-1.69 6.182,-0.266 5.687,1.552 4.257,2.364 2.823,3.178 0.986,2.679 0.165,1.252 -0.659,-0.174 -0.165,-1.992 1.268,-2.803"
             style="fill:#00837c;fill-opacity:1;fill-rule:nonzero;stroke:none"
             id="path217" />
        </g>
        <g
           id="g219"
           transform="translate(844.7522,488.9954)">
          <path
             d="M 0,0 C -0.373,0.527 -0.548,1.169 -0.492,1.811 L 1.11,2.246 1.602,0.436 Z M 2.503,4.333 2.936,2.743 4.537,3.178 C 4.908,2.654 5.083,2.01 5.029,1.367 L 3.428,0.932 3.859,-0.655 C 3.326,-1.028 2.681,-1.201 2.032,-1.151 L 1.6,0.435 3.428,0.932 2.936,2.743 1.108,2.246 0.676,3.836 C 1.211,4.207 1.855,4.382 2.503,4.333 M 4.864,0.119 C 5.691,1.545 5.197,3.363 3.761,4.174 2.327,4.988 0.495,4.49 -0.329,3.062 -1.155,1.636 -0.661,-0.182 0.773,-0.993 2.206,-1.804 4.039,-1.306 4.864,0.119"
             style="fill:#00837c;fill-opacity:1;fill-rule:nonzero;stroke:none"
             id="path221" />
        </g>
        <g
           id="g223"
           transform="translate(830.9155,454.6575)">
          <path
             d="m 0,0 c -0.101,-0.44 -0.865,-2.637 -4.927,-3.824 l 0.03,0.009 -0.031,-0.009 -0.024,-0.006 0.024,0.006 c -4.096,-1.066 -5.881,0.43 -6.187,0.754 -0.312,0.325 -0.216,0.571 -0.089,0.908 0.128,0.332 0.638,1.487 0.956,4.634 0.096,0.985 0.259,1.746 0.432,2.328 0.039,-0.012 0.084,-0.017 0.124,-0.006 l 4.43,1.224 C -5.217,6.03 -5.183,6.054 -5.158,6.086 -4.709,5.677 -4.183,5.108 -3.593,4.313 -1.702,1.773 -0.675,1.04 -0.39,0.824 -0.11,0.597 0.1,0.437 0,0 m -14.666,-3.36 c -0.103,-0.438 -0.865,-2.638 -4.927,-3.822 l 0.028,0.008 -0.028,-0.008 c 0,0 -0.001,0 -0.001,0 0,0 0,0 0,0 l -0.026,-0.007 0.025,0.007 h 10e-4 c -4.097,-1.065 -5.882,0.427 -6.19,0.753 -0.309,0.326 -0.214,0.57 -0.086,0.906 0.128,0.332 0.636,1.488 0.95,4.636 0.101,0.986 0.262,1.747 0.437,2.329 0.038,-0.012 0.081,-0.017 0.124,-0.006 l 4.43,1.222 c 0.044,0.012 0.078,0.038 0.104,0.07 0.448,-0.409 0.976,-0.981 1.566,-1.775 1.89,-2.541 2.918,-3.274 3.202,-3.49 0.281,-0.226 0.489,-0.385 0.391,-0.823 m -17.105,-3.649 c -0.103,-0.437 -0.865,-2.634 -4.925,-3.816 -4.1,-1.07 -5.885,0.423 -6.192,0.749 -0.31,0.325 -0.214,0.569 -0.087,0.906 0.128,0.332 0.641,1.488 0.954,4.637 0.1,0.988 0.261,1.747 0.436,2.328 0.035,-0.013 0.08,-0.018 0.125,-0.006 l 4.427,1.221 c 0.044,0.015 0.077,0.038 0.103,0.073 0.449,-0.411 0.977,-0.983 1.57,-1.777 1.888,-2.542 2.914,-3.271 3.198,-3.491 0.283,-0.223 0.49,-0.384 0.391,-0.824 m -4.955,-3.828 0.031,0.009 c 0.006,0.002 0.014,0.004 0.024,0.006 z m 19.468,44.656 -4.48,-1.012 -0.003,-0.001 c -0.154,0.258 -0.232,0.641 -0.307,0.977 -0.137,0.624 0.094,1.35 0.72,1.493 l 0.075,0.016 -6.274,17.848 c -0.185,-0.063 -0.376,-0.125 -0.577,-0.183 l -5.91,-19.838 c 0.388,-0.147 0.68,-0.553 0.781,-0.996 0.075,-0.336 0.171,-0.716 0.141,-1.015 l -4.484,-1.014 -0.003,-0.001 c -0.15,0.26 -0.226,0.643 -0.301,0.979 -0.137,0.603 0.078,1.298 0.663,1.472 l -8.023,17.249 c -0.464,-0.029 -0.969,-0.031 -1.525,0.004 0.013,-0.002 0.021,-0.003 0.029,-0.004 l -0.056,0.002 c 0.012,0 0.021,0 0.027,0.002 -0.119,0.011 -0.227,0.027 -0.342,0.041 l -4.995,-19.825 0.097,-0.007 c 0.641,-0.049 0.97,-0.734 0.919,-1.372 -0.029,-0.344 -0.05,-0.735 -0.165,-1.011 l -0.005,-0.002 -4.576,0.353 c -0.072,0.291 -0.027,0.682 0.002,1.026 0.047,0.637 0.489,1.266 1.128,1.214 l 0.345,-0.027 5.071,20.122 c -2.183,0.745 -2.891,1.984 -3.025,2.298 -0.178,0.409 -0.006,0.608 0.232,0.879 0.232,0.27 1.108,1.186 2.488,4.04 0.435,0.895 0.849,1.556 1.212,2.045 0.03,-0.026 0.072,-0.046 0.115,-0.049 l 4.578,-0.351 c 0.045,-0.005 0.085,0.006 0.119,0.027 0.28,-0.537 0.579,-1.253 0.86,-2.203 0.895,-3.031 1.609,-4.066 1.799,-4.369 0.186,-0.307 0.33,-0.528 0.083,-0.909 -0.149,-0.23 -0.757,-0.988 -2.158,-1.488 l 7.157,-15.381 5.284,17.735 c -2.419,-0.078 -3.554,0.882 -3.792,1.136 -0.312,0.325 -0.214,0.569 -0.084,0.904 0.128,0.334 0.641,1.488 0.972,4.633 0.104,0.987 0.265,1.748 0.445,2.328 0.035,-0.016 0.08,-0.018 0.124,-0.006 l 4.435,1.206 c 0.04,0.011 0.077,0.035 0.101,0.068 0.448,-0.413 0.972,-0.988 1.557,-1.784 1.88,-2.544 2.905,-3.28 3.192,-3.501 0.279,-0.224 0.485,-0.386 0.384,-0.823 -0.073,-0.317 -0.506,-1.558 -2.285,-2.662 l 6.434,-18.294 0.37,0.084 c 0.632,0.143 1.148,-0.414 1.29,-1.04 0.076,-0.336 0.172,-0.716 0.145,-1.012 z m -20.107,43.266 c -0.418,-0.178 -0.884,-0.345 -1.405,-0.495 -0.842,-0.216 -1.581,-0.32 -2.234,-0.353 l -3.545,-14.098 0.164,-0.013 c 0.638,-0.052 0.967,-0.737 0.915,-1.373 -0.029,-0.347 -0.05,-0.735 -0.164,-1.017 0,0 -0.005,0.002 -0.005,0.004 l -4.577,0.353 -0.004,-0.001 c -0.069,0.294 -0.023,0.683 0.003,1.026 0.056,0.637 0.491,1.264 1.132,1.215 l 0.28,-0.021 3.552,14.141 c -1.016,0.284 -1.548,0.748 -1.703,0.913 -0.312,0.325 -0.214,0.57 -0.084,0.907 0.127,0.332 0.642,1.486 0.971,4.633 0.104,0.987 0.27,1.746 0.445,2.325 0.04,-0.012 0.081,-0.017 0.126,-0.005 l 4.433,1.205 c 0.041,0.011 0.078,0.035 0.101,0.067 0.449,-0.409 0.972,-0.984 1.562,-1.779 1.877,-2.547 2.902,-3.283 3.186,-3.503 0.28,-0.226 0.491,-0.387 0.388,-0.824 -0.064,-0.271 -0.386,-1.214 -1.583,-2.17 l 5.027,-12.973 0.273,0.074 c 0.622,0.169 1.164,-0.361 1.332,-0.98 0.091,-0.334 0.201,-0.708 0.187,-1.009 l -4.436,-1.206 -0.003,-10e-4 c -0.164,0.252 -0.254,0.632 -0.345,0.966 -0.168,0.619 0.028,1.35 0.652,1.52 l 0.174,0.047 z m -15.066,33.177 c 0.964,2.241 2.776,3.753 5.181,4.382 2.576,0.669 4.977,0.045 7.302,-0.555 1.719,-0.446 3.351,-0.867 4.964,-0.753 -1.191,1.145 -2.047,2.592 -2.383,4.439 -0.382,2.102 0.831,4.286 2.948,5.303 1.984,0.949 4.073,0.559 5.461,-1.022 1.303,-1.483 1.591,-3.453 0.82,-5.553 -0.483,-1.316 -1.331,-2.521 -2.353,-3.455 0.288,-0.127 0.582,-0.248 0.892,-0.364 0.441,0.707 0.848,1.341 1.217,1.873 3.663,5.302 10.256,10.247 15.785,9.435 2.356,-0.348 5.533,-1.926 7.261,-7.476 h -0.002 c 0.999,-3.196 0.627,-6.389 -0.906,-8.893 4.925,-0.852 9.707,-1.23 14.559,-0.674 4.267,0.488 6.804,1.534 7.54,3.108 0.003,0.006 0.004,0.015 0.007,0.021 0.081,-0.015 0.162,-0.012 0.242,-0.019 l 0.077,-0.282 0.588,-2.162 c -0.956,-0.918 -2.34,-1.628 -4.221,-2.143 -1.143,-0.311 -2.469,-0.55 -3.987,-0.725 -5.513,-0.631 -10.878,-0.128 -16.411,0.907 -0.356,-0.335 -0.737,-0.65 -1.151,-0.935 -2.073,-1.425 -4.598,-1.919 -7.724,-1.511 -1.339,0.175 -2.574,0.574 -3.763,0.957 -1.89,0.611 -3.558,1.15 -5.341,0.752 1.148,-1.386 1.835,-3.081 1.388,-4.936 -0.442,-1.821 -2.147,-3.304 -4.057,-3.53 -1.641,-0.192 -3.063,0.58 -3.812,2.069 -0.574,1.144 -0.622,2.402 -0.135,3.643 0.503,1.281 1.512,2.401 2.643,3.251 -0.453,0.275 -0.912,0.503 -1.339,0.677 -3.051,-4.614 -6.848,-9.459 -10.952,-10.696 0.102,-2.598 0.691,-5.034 1.123,-6.489 l 0.237,0.064 c 0.623,0.17 1.164,-0.361 1.332,-0.98 0.09,-0.332 0.204,-0.707 0.186,-1.006 l -4.435,-1.206 -0.004,-0.001 c -0.161,0.25 -0.254,0.631 -0.344,0.963 -0.168,0.619 0.029,1.35 0.653,1.52 l 0.219,0.06 c -0.453,1.542 -1.052,4.04 -1.18,6.778 -2.785,0.115 -5.279,2.079 -7.414,5.86 -1.628,2.886 -1.907,6.537 -0.711,9.304 m 73.207,17.184 -0.18,-2.943 -2.274,-0.618 0.181,2.943 z m -12.094,-3.289 2.273,0.618 1.644,-2.446 -2.271,-0.618 z m 5.409,-2.18 -1.117,4.108 -6.616,-1.799 c 0.004,-0.658 -0.433,-1.262 -1.099,-1.444 -0.672,-0.182 -1.356,0.118 -1.684,0.681 -0.661,-0.004 -1.27,0.429 -1.45,1.09 -0.179,0.66 0.127,1.343 0.699,1.67 -0.003,0.658 0.434,1.263 1.106,1.446 0.666,0.181 1.35,-0.122 1.68,-0.691 l 6.616,1.799 -0.916,3.368 c -0.663,-0.01 -1.271,0.424 -1.451,1.084 -0.18,0.663 0.125,1.345 0.698,1.673 -0.004,0.655 0.433,1.262 1.101,1.444 0.668,0.182 1.352,-0.121 1.682,-0.687 0.659,0.007 1.267,-0.427 1.447,-1.09 0.18,-0.66 -0.125,-1.342 -0.701,-1.669 l 0.916,-3.369 6.619,1.8 c -0.005,0.658 0.436,1.266 1.099,1.447 0.672,0.182 1.351,-0.119 1.686,-0.687 0.655,0.006 1.264,-0.427 1.444,-1.087 0.179,-0.661 -0.127,-1.344 -0.694,-1.673 -0.002,-0.653 -0.436,-1.257 -1.107,-1.44 -0.664,-0.18 -1.351,0.119 -1.68,0.688 l -6.619,-1.799 1.117,-4.108 8.544,2.323 c -0.005,0.662 0.437,1.269 1.105,1.45 0.666,0.182 1.354,-0.118 1.68,-0.687 0.659,0.007 1.269,-0.427 1.448,-1.085 0.181,-0.665 -0.126,-1.348 -0.698,-1.673 0.006,-0.651 -0.435,-1.26 -1.102,-1.441 -0.668,-0.182 -1.356,0.12 -1.686,0.688 l -8.544,-2.323 1.12,-4.118 -2.776,-0.754 -1.12,4.118 -8.544,-2.324 c 0.007,-0.656 -0.434,-1.264 -1.102,-1.446 -0.665,-0.181 -1.353,0.121 -1.678,0.685 -0.662,-0.01 -1.27,0.424 -1.451,1.089 -0.179,0.658 0.126,1.34 0.701,1.669 -0.007,0.656 0.435,1.262 1.099,1.443 0.669,0.182 1.356,-0.117 1.684,-0.692 z m 6.067,-6.09 c -0.216,0.034 -0.439,0.021 -0.663,-0.017 l -0.051,0.189 -0.928,3.411 1.802,0.49 -0.14,-2.271 c -0.039,-0.652 -0.041,-1.246 -0.02,-1.802 m -6.019,0.16 -1.269,1.888 1.449,0.394 0.928,-3.411 0.052,-0.192 c -0.098,-0.034 -0.195,-0.072 -0.285,-0.125 -0.252,0.463 -0.536,0.94 -0.875,1.446 m 6.268,-4.176 -3.864,-1.051 c -0.717,-0.195 -1.47,0.278 -1.68,1.052 l -0.124,0.455 c -0.211,0.777 0.2,1.564 0.916,1.759 l 3.864,1.05 c 0.719,0.196 1.473,-0.275 1.684,-1.051 l 0.124,-0.455 c 0.21,-0.774 -0.201,-1.564 -0.92,-1.759 m -2.913,-4.099 -0.598,2.2 3.634,0.988 0.598,-2.2 z M 66.71,16.016 66.664,16.006 C 67.792,11.667 65.514,7.298 61.539,6.217 60.114,5.83 58.664,5.919 57.333,6.387 L 57.316,6.386 c 0.329,-3.209 -3.382,-7.281 -5.571,-8.826 -0.061,-0.044 -0.128,-0.13 -0.2,-0.243 -0.285,-0.358 -0.66,-1.073 -1.161,-2.565 -0.712,0.535 -2.273,1.659 -2.845,1.67 v -0.011 c -2.684,0.254 -8.028,1.753 -9.272,4.778 L 38.257,1.186 C 37.347,0.105 36.139,-0.703 34.712,-1.091 30.741,-2.171 26.563,0.44 25.34,4.754 L 25.295,4.741 C 24.269,2.215 22.121,0.182 19.287,-0.588 14.557,-1.875 9.685,0.844 8.276,5.502 l 0.01,0.003 -0.017,0.061 c -0.345,1.271 0.413,2.582 1.692,2.93 1.282,0.348 2.602,-0.398 2.947,-1.669 0.13,-0.476 0.102,-0.958 -0.049,-1.392 l 0.026,-0.007 c 0.65,1.801 0.758,3.927 0.178,6.059 -1.309,4.816 -5.625,7.836 -9.639,6.744 C 1.745,17.775 0.383,16.666 -0.533,15.185 L -0.554,15.14 c -0.11,-0.165 -0.244,-0.326 -0.407,-0.486 -0.61,-0.599 -1.571,-1.129 -2.72,-1.441 -2.172,-0.591 -4.178,-0.164 -4.481,0.952 l -2.784,10.236 c 0,0 -0.842,3.612 2.282,6.072 0.416,0.328 2.263,2.048 2.034,2.63 -0.235,0.583 -0.895,0.618 -3.332,0.817 -2.444,0.195 -3.209,4.074 -3.406,5.6 -0.198,1.526 -0.454,1.668 -1.167,3.769 -0.717,2.099 3.023,2.974 4.221,3.083 1.201,0.114 1.192,-1.179 3.093,0.341 1.9,1.522 0.415,4.057 -0.331,5.217 -0.752,1.158 -2.018,-0.046 -2.783,-0.686 -0.766,-0.638 -3.123,-1.279 -4.606,-1.682 -1.483,-0.403 -3.726,1.999 -3.793,2.769 -0.062,0.772 -1.915,6.415 -1.915,6.415 -1.813,6.147 1.979,8.405 6.875,9.736 3.101,0.843 6.082,0.043 8.394,-1.143 l 0.001,-0.002 c 0.452,-0.236 0.996,-0.309 1.527,-0.164 1.122,0.305 1.787,1.455 1.485,2.566 -0.302,1.112 -1.458,1.765 -2.58,1.46 -0.215,-0.058 -0.416,-0.15 -0.59,-0.262 l -0.008,-0.002 c -0.218,0.104 -4.902,2.337 -7.616,3.877 -2.783,1.575 -1.531,4.029 -1.531,4.029 l 2.789,9.589 c 0.561,1.507 1.102,2.781 2.633,3.198 1.886,0.512 3.814,-0.544 4.307,-2.359 0.391,-1.437 -0.237,-2.916 -1.451,-3.727 l 0.013,-0.021 c 0.551,-0.057 1.439,-0.067 2.01,0.088 1.432,0.39 2.578,1.21 2.983,2.609 0,0 3.106,14.279 7.553,15.488 l 13.472,3.663 0.018,0.019 13.472,3.663 c 4.445,1.209 14.355,-9.528 14.355,-9.528 1.06,-1.001 2.462,-1.131 3.894,-0.742 0.571,0.155 1.33,0.613 1.777,0.941 l 0.002,0.026 c -1.459,0.084 -2.746,1.045 -3.137,2.481 -0.493,1.813 0.636,3.701 2.516,4.212 1.536,0.417 2.643,-0.407 3.89,-1.421 l 7.261,-6.857 c 0,0 2.323,-1.485 0.724,-4.251 -1.574,-2.722 -4.516,-7.069 -4.606,-7.203 l -0.005,0.004 c -0.213,0.006 -0.433,-0.017 -0.646,-0.075 -1.123,-0.305 -1.785,-1.454 -1.483,-2.564 0.302,-1.111 1.454,-1.767 2.577,-1.461 0.524,0.142 0.949,0.47 1.223,0.894 h -0.003 c 1.39,2.198 3.566,4.414 6.672,5.258 4.896,1.332 9.311,1.306 10.859,-4.917 0,0 1.265,-5.8 1.596,-6.498 0.338,-0.699 -0.383,-3.908 -1.865,-4.311 -1.481,-0.403 -3.838,-1.044 -4.825,-0.883 -0.984,0.165 -2.681,0.566 -2.743,-0.816 -0.061,-1.378 -0.055,-4.315 2.356,-4.666 2.407,-0.346 1.745,0.762 2.836,1.274 1.089,0.511 4.759,1.653 5.205,-0.521 0.447,-2.173 0.298,-2.428 0.901,-3.844 0.599,-1.414 1.902,-5.145 -0.1,-6.552 -2.007,-1.408 -2.556,-1.772 -2.461,-2.39 0.097,-0.621 2.561,-1.169 3.087,-1.241 1.433,-0.197 2.487,-0.792 3.252,-1.468 0.105,1.808 0.177,3.629 0.177,5.474 0,9.066 -1.279,17.685 -3.81,25.869 -0.092,0.074 -0.16,0.137 -0.201,0.179 -0.271,0.288 -0.221,0.516 -0.119,0.795 -0.679,2.103 -1.418,4.185 -2.266,6.229 -4.264,10.279 -10.164,19.303 -17.701,27.071 -1.935,1.994 -3.953,3.873 -6.05,5.643 -0.064,-0.072 -0.127,-0.143 -0.192,-0.215 -0.832,-0.933 -1.693,-1.902 -2.76,-2.731 -2.49,-1.935 -4.92,-2.788 -7.426,-2.608 -0.502,0.037 -0.991,0.115 -1.469,0.224 -4.246,-3.693 -8.615,-6.845 -13.688,-9.092 -1.394,-0.617 -2.658,-1.082 -3.807,-1.394 -2.081,-0.566 -3.763,-0.622 -5.123,-0.187 l -0.535,1.966 -0.075,0.276 c 0.151,0.101 0.291,0.221 0.41,0.355 0.051,-0.043 0.096,-0.096 0.151,-0.131 1.433,-0.985 4.153,-0.601 8.075,1.138 4.463,1.976 8.391,4.732 12.204,7.958 -2.586,1.385 -4.521,3.949 -5.276,7.207 v 0.001 c -1.022,4.387 -0.086,7.152 1.252,8.871 -0.656,0.306 -1.302,0.625 -1.969,0.916 -0.714,0.313 -1.441,0.589 -2.163,0.879 -1.626,-1.635 -5.012,-3.546 -9.498,-5.379 -0.525,0.349 -1.188,0.471 -1.829,0.297 -0.782,-0.213 -1.369,-0.822 -1.572,-1.575 l -5.436,-1.478 -0.597,2.194 c 0.554,0.55 0.789,1.362 0.578,2.139 -0.228,0.836 -0.921,1.448 -1.758,1.596 -0.551,0.638 -1.436,0.921 -2.276,0.692 -0.841,-0.228 -1.461,-0.92 -1.613,-1.75 -0.647,-0.551 -0.935,-1.43 -0.708,-2.266 0.211,-0.777 0.822,-1.359 1.581,-1.554 l 0.596,-2.192 -5.433,-1.477 c -0.556,0.546 -1.375,0.773 -2.152,0.562 -0.642,-0.175 -1.152,-0.616 -1.427,-1.182 -7.223,-1.04 -12.409,-0.675 -12.926,1.224 -0.757,2.785 8.731,8.128 21.295,11.544 4.023,1.094 7.873,1.856 11.275,2.297 -0.722,0.162 -1.444,0.322 -2.173,0.464 -2.955,-0.448 -6.119,-1.043 -9.334,-1.917 -3.783,-1.029 -7.337,-2.357 -10.487,-3.671 -2.306,-1.034 -5.346,-2.446 -5.346,-2.446 -0.393,1.052 -0.338,2.144 0.349,3.382 0.693,1.251 1.921,2.365 4.549,3.353 0.202,0.493 0.467,0.989 0.809,1.483 0.296,0.437 0.637,0.858 1.032,1.264 -10.485,-0.301 -20.356,-2.445 -29.594,-6.483 -9.983,-4.363 -18.741,-10.429 -26.278,-18.197 -7.537,-7.768 -13.437,-16.792 -17.701,-27.071 -4.264,-10.282 -6.396,-21.305 -6.396,-33.072 0,-11.767 2.132,-22.792 6.396,-33.071 3.435,-8.282 7.952,-15.735 13.512,-22.387 l 2.367,14.073 c -2.628,0.709 -3.444,2.129 -3.587,2.467 -0.178,0.412 -0.006,0.609 0.231,0.882 0.233,0.267 1.11,1.184 2.488,4.039 0.436,0.893 0.85,1.557 1.217,2.044 0.025,-0.027 0.067,-0.044 0.11,-0.049 l 4.58,-0.352 c 0.045,-0.004 0.084,0.006 0.118,0.027 0.279,-0.534 0.579,-1.253 0.859,-2.2 0.895,-3.031 1.611,-4.066 1.799,-4.371 0.186,-0.306 0.331,-0.526 0.084,-0.907 -0.122,-0.185 -0.543,-0.718 -1.441,-1.181 l 9.744,-15.352 4.343,17.386 c -2.227,0.097 -3.239,1.042 -3.459,1.295 -0.293,0.341 -0.185,0.58 -0.04,0.91 0.144,0.325 0.709,1.456 1.174,4.586 0.146,0.978 0.344,1.733 0.545,2.307 0.04,-0.017 0.082,-0.026 0.127,-0.013 l 4.48,1.009 c 0.045,0.012 0.078,0.035 0.105,0.065 0.429,-0.429 0.929,-1.024 1.48,-1.847 1.765,-2.626 2.758,-3.404 3.03,-3.635 0.271,-0.237 0.472,-0.409 0.352,-0.842 -0.105,-0.369 -0.758,-1.99 -3.492,-3.076 l 8.257,-14.192 2.422,16.231 c -1.633,0.26 -2.413,0.988 -2.6,1.207 -0.3,0.339 -0.189,0.578 -0.043,0.909 0.141,0.33 0.706,1.458 1.171,4.588 0.145,0.979 0.346,1.73 0.55,2.306 0.036,-0.018 0.077,-0.024 0.122,-0.015 l 4.483,1.016 c 0.04,0.008 0.078,0.033 0.106,0.062 0.427,-0.431 0.926,-1.027 1.477,-1.847 1.768,-2.628 2.756,-3.405 3.03,-3.639 0.27,-0.234 0.471,-0.406 0.351,-0.839 -0.076,-0.264 -0.431,-1.172 -1.631,-2.065 l 6.583,-16.459 0.273,0.076 c 0.623,0.171 1.169,-0.358 1.339,-0.976 0.09,-0.331 0.205,-0.708 0.193,-1.008 L -9.84,5.344 -9.845,5.343 c -0.163,0.252 -0.259,0.633 -0.349,0.965 -0.172,0.614 0.025,1.352 0.643,1.525 l 0.17,0.047 -6.4,15.996 c -0.443,-0.17 -0.935,-0.326 -1.49,-0.46 -0.007,0.001 -0.02,-0.003 -0.027,-0.005 l 0.002,10e-4 c -0.451,-0.095 -0.871,-0.157 -1.266,-0.198 L -21.25,5.21 c 0.466,-0.067 0.844,-0.5 0.982,-0.994 0.09,-0.332 0.204,-0.705 0.191,-1.008 l -0.005,-0.001 -4.427,-1.221 -0.003,-10e-4 c -0.165,0.252 -0.258,0.63 -0.348,0.962 -0.164,0.582 0.016,1.254 0.553,1.474 L -33.539,20.29 -38.226,1.538 c 0.405,-0.121 0.728,-0.519 0.852,-0.967 0.091,-0.335 0.205,-0.707 0.194,-1.007 l -0.003,-0.001 -4.431,-1.225 -0.003,-0.001 c -0.164,0.256 -0.259,0.631 -0.35,0.968 -0.168,0.604 0.023,1.317 0.62,1.506 l -10.757,16.942 c -0.589,-0.084 -1.264,-0.118 -2.034,-0.084 L -56.814,1.745 c 0.751,-0.838 1.509,-1.671 2.296,-2.482 7.537,-7.768 16.295,-13.833 26.278,-18.196 9.981,-4.363 20.692,-6.545 32.128,-6.545 11.437,0 22.147,2.182 32.13,6.545 5.009,2.19 9.709,4.808 14.102,7.855 l -2.285,6.882 c 0.556,-0.258 1.612,-0.974 2.521,-1.682 l 0.293,-0.228 0.113,0.356 c 0.555,1.707 0.939,2.414 1.163,2.712 l 1.245,-5.815 c 3.218,2.46 6.262,5.164 9.126,8.116 4.443,4.579 8.301,9.606 11.606,15.057 -2.608,-0.499 -5.204,0.172 -7.192,1.696"
             style="fill:#00837c;fill-opacity:1;fill-rule:nonzero;stroke:none"
             id="path225" />
        </g>
        <g
           id="g227"
           transform="translate(661.1572,417.7108)">
          <path
             d="m 0,0 h -7.804 v -0.956 c 0.287,-0.019 0.701,-0.09 1.244,-0.216 0.545,-0.126 0.971,-0.3 1.286,-0.524 0.277,-0.196 0.487,-0.611 0.633,-1.244 0.143,-0.632 0.214,-1.443 0.214,-2.44 v -7.824 c 0,-0.538 -0.076,-1.072 -0.228,-1.601 -0.153,-0.53 -0.414,-1.034 -0.781,-1.518 -0.385,-0.512 -0.913,-0.925 -1.58,-1.238 -0.669,-0.313 -1.497,-0.471 -2.483,-0.471 -1.051,0 -1.875,0.158 -2.477,0.471 -0.6,0.313 -1.076,0.715 -1.427,1.21 -0.331,0.484 -0.553,1.006 -0.665,1.566 -0.112,0.562 -0.168,1.097 -0.168,1.607 v 10.542 c 0,0.295 0.052,0.57 0.156,0.819 0.103,0.252 0.306,0.429 0.611,0.539 0.179,0.062 0.46,0.129 0.842,0.201 0.381,0.073 0.697,0.112 0.948,0.121 V 0 h -7.953 v -0.956 c 0.224,-0.019 0.511,-0.066 0.861,-0.142 0.351,-0.076 0.636,-0.177 0.861,-0.302 0.314,-0.179 0.523,-0.374 0.626,-0.586 0.103,-0.21 0.156,-0.473 0.156,-0.787 v -11.289 c 0,-0.719 0.152,-1.407 0.455,-2.066 0.305,-0.659 0.759,-1.244 1.361,-1.755 0.609,-0.511 1.362,-0.919 2.26,-1.219 0.896,-0.299 1.918,-0.45 3.069,-0.45 0.716,0 1.468,0.105 2.253,0.316 0.784,0.209 1.532,0.558 2.24,1.042 0.719,0.504 1.296,1.145 1.737,1.926 0.439,0.779 0.658,1.699 0.658,2.758 v 8.303 c 0,0.932 0.059,1.721 0.176,2.367 0.116,0.645 0.327,1.072 0.632,1.278 0.305,0.2 0.7,0.346 1.184,0.445 0.485,0.098 0.852,0.152 1.103,0.161 z m 15.839,-18.206 c -0.279,0.017 -0.495,0.044 -0.653,0.08 -0.157,0.035 -0.344,0.098 -0.56,0.189 -0.258,0.109 -0.443,0.257 -0.55,0.449 -0.108,0.195 -0.162,0.447 -0.162,0.762 v 6.902 c 0,1.319 -0.307,2.375 -0.922,3.169 -0.613,0.794 -1.559,1.192 -2.833,1.192 -0.573,0 -1.089,-0.073 -1.545,-0.216 C 8.155,-5.823 7.76,-6.002 7.427,-6.217 7.141,-6.406 6.837,-6.65 6.512,-6.95 6.189,-7.252 5.922,-7.51 5.705,-7.725 H 5.638 v 1.87 L 5.451,-5.667 1.038,-5.962 V -6.848 C 1.306,-6.868 1.557,-6.902 1.79,-6.95 2.023,-7 2.225,-7.079 2.396,-7.185 2.628,-7.347 2.811,-7.555 2.941,-7.812 3.071,-8.065 3.136,-8.347 3.136,-8.65 v -8.185 c 0,-0.323 -0.06,-0.584 -0.183,-0.788 -0.121,-0.2 -0.306,-0.342 -0.557,-0.423 -0.162,-0.052 -0.353,-0.089 -0.572,-0.108 -0.221,-0.018 -0.434,-0.035 -0.64,-0.052 v -0.888 h 6.499 v 0.888 c -0.232,0.017 -0.459,0.048 -0.678,0.094 -0.219,0.044 -0.424,0.111 -0.613,0.202 -0.25,0.107 -0.439,0.261 -0.565,0.457 -0.127,0.197 -0.189,0.449 -0.189,0.754 v 7.629 c 0.081,0.144 0.21,0.336 0.385,0.571 0.176,0.238 0.411,0.46 0.708,0.667 0.305,0.216 0.657,0.395 1.052,0.544 0.396,0.149 0.832,0.223 1.308,0.223 0.638,0 1.181,-0.255 1.626,-0.767 0.445,-0.511 0.667,-1.238 0.667,-2.18 v -6.823 c 0,-0.322 -0.06,-0.584 -0.181,-0.787 -0.122,-0.201 -0.308,-0.343 -0.559,-0.424 -0.161,-0.052 -0.366,-0.089 -0.612,-0.108 -0.248,-0.018 -0.473,-0.035 -0.68,-0.052 v -0.888 h 6.487 z m 8.06,0 c -0.233,0.017 -0.441,0.052 -0.629,0.1 -0.186,0.05 -0.378,0.113 -0.575,0.196 -0.257,0.096 -0.447,0.251 -0.567,0.457 -0.12,0.205 -0.182,0.467 -0.182,0.78 v 10.818 l -0.188,0.188 -4.681,-0.295 v -0.886 c 0.268,-0.02 0.565,-0.069 0.887,-0.144 0.323,-0.073 0.57,-0.167 0.74,-0.276 0.235,-0.161 0.415,-0.359 0.545,-0.598 0.131,-0.236 0.195,-0.499 0.195,-0.784 v -8.185 c 0,-0.323 -0.061,-0.584 -0.18,-0.788 -0.123,-0.2 -0.308,-0.342 -0.56,-0.423 -0.161,-0.052 -0.352,-0.089 -0.571,-0.108 -0.22,-0.018 -0.432,-0.035 -0.639,-0.052 v -0.888 h 6.405 z M 21.725,0.772 c -0.327,0.346 -0.747,0.519 -1.257,0.519 -0.459,0 -0.855,-0.184 -1.191,-0.551 -0.337,-0.369 -0.506,-0.799 -0.506,-1.291 0,-0.468 0.169,-0.882 0.506,-1.246 0.336,-0.363 0.732,-0.544 1.191,-0.544 0.493,0 0.908,0.191 1.244,0.571 0.337,0.381 0.504,0.827 0.504,1.338 0,0.459 -0.164,0.858 -0.491,1.204 m 16.922,-6.6 H 33.57 v -0.859 c 0.125,-0.019 0.286,-0.051 0.484,-0.097 0.197,-0.043 0.399,-0.11 0.605,-0.2 0.207,-0.089 0.383,-0.195 0.532,-0.316 0.148,-0.119 0.222,-0.257 0.222,-0.409 0,-0.217 -0.04,-0.428 -0.121,-0.641 -0.081,-0.209 -0.168,-0.435 -0.256,-0.677 -0.566,-1.417 -1.091,-2.696 -1.582,-3.845 -0.489,-1.147 -0.894,-2.105 -1.216,-2.876 -0.421,1.003 -0.967,2.327 -1.639,3.965 -0.67,1.639 -1.189,2.917 -1.557,3.833 -0.043,0.143 -0.088,0.269 -0.133,0.382 -0.046,0.113 -0.067,0.182 -0.067,0.209 0,0.177 0.2,0.32 0.604,0.422 0.404,0.104 0.742,0.159 1.011,0.169 v 0.94 h -6.141 v -0.887 c 0.404,-0.063 0.804,-0.208 1.204,-0.437 0.399,-0.228 0.688,-0.549 0.867,-0.962 0.772,-1.822 1.517,-3.6 2.235,-5.336 0.718,-1.736 1.503,-3.657 2.354,-5.765 h 1.05 c 0.17,0.519 0.358,1.061 0.558,1.628 0.202,0.564 0.394,1.055 0.573,1.465 0.609,1.435 1.197,2.806 1.763,4.112 0.564,1.303 1.111,2.558 1.64,3.762 0.262,0.557 0.573,0.943 0.937,1.164 0.362,0.218 0.745,0.365 1.15,0.436 z m 11.422,-9.567 c -0.536,-0.973 -1.095,-1.646 -1.673,-2.022 -0.58,-0.374 -1.267,-0.56 -2.065,-0.56 -0.782,0 -1.453,0.151 -2.02,0.452 -0.564,0.299 -1.022,0.712 -1.371,1.233 -0.36,0.539 -0.623,1.164 -0.788,1.874 -0.166,0.711 -0.248,1.501 -0.248,2.375 h 8.786 v 0.889 c 0,0.797 -0.101,1.536 -0.304,2.217 -0.201,0.684 -0.508,1.276 -0.921,1.778 -0.43,0.529 -0.991,0.946 -1.682,1.252 -0.691,0.304 -1.52,0.457 -2.488,0.457 -0.943,0 -1.793,-0.196 -2.552,-0.584 -0.757,-0.392 -1.393,-0.905 -1.903,-1.542 -0.529,-0.664 -0.932,-1.411 -1.205,-2.24 -0.273,-0.832 -0.41,-1.676 -0.41,-2.538 0,-0.959 0.127,-1.869 0.384,-2.731 0.257,-0.86 0.643,-1.614 1.163,-2.259 0.52,-0.649 1.182,-1.159 1.985,-1.535 0.803,-0.377 1.739,-0.566 2.806,-0.566 1.212,0 2.283,0.315 3.216,0.942 0.932,0.629 1.677,1.471 2.234,2.53 z m -8.165,4.482 c 0.053,1.396 0.392,2.483 1.015,3.264 0.623,0.785 1.405,1.175 2.348,1.175 0.566,0 1.028,-0.129 1.386,-0.389 0.358,-0.259 0.641,-0.592 0.848,-1.005 0.187,-0.385 0.325,-0.864 0.409,-1.435 0.086,-0.574 0.129,-1.109 0.129,-1.61 z m 20.27,4.857 c -0.353,0.369 -0.813,0.55 -1.378,0.55 -0.566,0 -1.189,-0.187 -1.871,-0.562 -0.681,-0.378 -1.301,-0.929 -1.858,-1.657 h -0.066 v 1.87 l -0.189,0.188 -4.413,-0.295 v -0.886 c 0.269,-0.02 0.519,-0.054 0.754,-0.102 0.232,-0.05 0.435,-0.129 0.605,-0.235 0.232,-0.162 0.415,-0.378 0.545,-0.646 0.13,-0.268 0.195,-0.542 0.195,-0.819 v -8.185 c 0,-0.323 -0.06,-0.584 -0.183,-0.788 -0.119,-0.2 -0.306,-0.342 -0.557,-0.423 -0.161,-0.052 -0.353,-0.089 -0.572,-0.108 -0.221,-0.018 -0.434,-0.035 -0.639,-0.052 v -0.888 h 6.997 v 0.888 c -0.259,0.017 -0.567,0.048 -0.922,0.094 -0.354,0.044 -0.643,0.111 -0.868,0.202 -0.261,0.096 -0.45,0.245 -0.571,0.442 -0.122,0.199 -0.182,0.454 -0.182,0.769 v 7.723 c 0.395,0.626 0.875,1.114 1.44,1.453 0.564,0.341 1.059,0.513 1.479,0.513 -0.027,-0.161 -0.056,-0.323 -0.087,-0.484 -0.032,-0.164 -0.047,-0.342 -0.047,-0.539 0,-0.317 0.131,-0.601 0.397,-0.862 0.264,-0.26 0.648,-0.391 1.151,-0.391 0.465,0 0.812,0.177 1.036,0.533 0.223,0.354 0.336,0.759 0.336,1.216 0,0.62 -0.176,1.114 -0.532,1.481 m 9.124,-5.706 c -0.525,0.252 -1.083,0.472 -1.676,0.66 -0.599,0.198 -1.105,0.375 -1.512,0.532 -0.41,0.156 -0.748,0.326 -1.016,0.504 -0.279,0.188 -0.488,0.419 -0.627,0.687 -0.139,0.268 -0.209,0.604 -0.209,1.009 0,0.524 0.211,0.969 0.633,1.341 0.422,0.371 1.001,0.555 1.735,0.555 0.898,0 1.658,-0.298 2.282,-0.897 0.623,-0.601 1.028,-1.376 1.217,-2.331 h 0.93 l -0.204,4.264 h -0.967 l -0.31,-0.7 c -0.341,0.189 -0.782,0.35 -1.325,0.487 -0.545,0.133 -1.074,0.201 -1.594,0.201 -1.356,0 -2.436,-0.378 -3.244,-1.131 -0.807,-0.752 -1.212,-1.672 -1.212,-2.759 0,-0.617 0.125,-1.156 0.377,-1.615 0.252,-0.457 0.575,-0.843 0.969,-1.155 0.369,-0.297 0.81,-0.555 1.327,-0.774 0.514,-0.221 0.983,-0.394 1.405,-0.52 0.53,-0.161 1.01,-0.326 1.44,-0.489 0.431,-0.167 0.793,-0.353 1.091,-0.559 0.285,-0.207 0.504,-0.447 0.651,-0.722 0.149,-0.272 0.222,-0.598 0.222,-0.973 0,-0.732 -0.233,-1.294 -0.699,-1.687 -0.466,-0.391 -1.13,-0.587 -1.992,-0.587 -0.609,0 -1.159,0.134 -1.649,0.405 -0.489,0.27 -0.907,0.602 -1.257,1 -0.333,0.378 -0.614,0.798 -0.848,1.267 -0.233,0.469 -0.386,0.878 -0.458,1.229 H 63.85 l 0.134,-4.615 h 1.01 l 0.269,0.875 c 0.278,-0.235 0.743,-0.489 1.393,-0.767 0.649,-0.279 1.36,-0.418 2.132,-0.418 1.463,0 2.653,0.391 3.574,1.172 0.918,0.78 1.377,1.783 1.377,3.013 0,0.61 -0.096,1.127 -0.294,1.548 -0.199,0.422 -0.481,0.792 -0.849,1.118 -0.34,0.304 -0.772,0.582 -1.298,0.832 m 10.878,-6.444 c -0.23,0.017 -0.44,0.052 -0.626,0.1 -0.188,0.05 -0.379,0.113 -0.576,0.196 -0.259,0.096 -0.446,0.251 -0.567,0.457 -0.121,0.205 -0.18,0.467 -0.18,0.78 v 10.818 l -0.189,0.188 -4.684,-0.295 v -0.886 c 0.27,-0.02 0.566,-0.069 0.889,-0.144 0.323,-0.073 0.569,-0.167 0.74,-0.276 0.233,-0.161 0.414,-0.359 0.546,-0.598 0.129,-0.236 0.195,-0.499 0.195,-0.784 v -8.185 c 0,-0.323 -0.062,-0.584 -0.183,-0.788 -0.121,-0.2 -0.308,-0.342 -0.558,-0.423 -0.162,-0.052 -0.352,-0.089 -0.573,-0.108 -0.219,-0.018 -0.431,-0.035 -0.639,-0.052 v -0.888 h 6.405 z M 80.004,0.772 c -0.328,0.346 -0.747,0.519 -1.259,0.519 -0.456,0 -0.853,-0.184 -1.19,-0.551 -0.337,-0.369 -0.505,-0.799 -0.505,-1.291 0,-0.468 0.168,-0.882 0.505,-1.246 0.337,-0.363 0.734,-0.544 1.19,-0.544 0.495,0 0.908,0.191 1.246,0.571 0.336,0.381 0.504,0.827 0.504,1.338 0,0.459 -0.164,0.858 -0.491,1.204 m 18.348,-18.737 c -0.27,0.009 -0.565,0.028 -0.888,0.055 -0.325,0.027 -0.57,0.094 -0.74,0.2 -0.234,0.154 -0.411,0.339 -0.533,0.559 -0.119,0.22 -0.181,0.486 -0.181,0.8 V 1.534 L 95.809,1.736 90.372,1.439 V 0.605 c 0.493,-0.037 0.952,-0.092 1.378,-0.169 0.427,-0.077 0.766,-0.2 1.016,-0.37 0.224,-0.163 0.401,-0.399 0.527,-0.708 0.124,-0.31 0.187,-0.656 0.187,-1.031 V -6.3 c -0.43,0.244 -0.943,0.445 -1.538,0.601 -0.596,0.157 -1.204,0.236 -1.821,0.236 -0.824,0 -1.633,-0.179 -2.426,-0.539 -0.793,-0.358 -1.462,-0.839 -2.008,-1.44 -0.582,-0.645 -1.04,-1.398 -1.371,-2.26 -0.331,-0.861 -0.496,-1.773 -0.496,-2.731 0,-1.05 0.154,-2.01 0.461,-2.882 0.311,-0.868 0.729,-1.614 1.259,-2.233 0.518,-0.61 1.13,-1.082 1.834,-1.419 0.702,-0.336 1.431,-0.505 2.182,-0.505 0.726,0 1.432,0.166 2.118,0.497 0.686,0.333 1.259,0.759 1.727,1.281 l 0.107,-0.028 v -1.239 l 0.202,-0.188 4.642,0.296 z m -6.061,0.404 c -0.468,-0.313 -1.062,-0.471 -1.779,-0.471 -0.672,0 -1.251,0.153 -1.739,0.458 -0.488,0.305 -0.889,0.708 -1.202,1.21 -0.339,0.529 -0.582,1.102 -0.726,1.717 -0.143,0.614 -0.213,1.298 -0.213,2.053 0,0.94 0.095,1.799 0.287,2.576 0.194,0.775 0.455,1.414 0.786,1.916 0.35,0.52 0.75,0.92 1.202,1.198 0.453,0.28 0.948,0.416 1.485,0.416 0.466,0 0.872,-0.072 1.222,-0.221 0.349,-0.147 0.654,-0.334 0.913,-0.559 0.242,-0.224 0.443,-0.469 0.603,-0.74 0.163,-0.268 0.278,-0.52 0.35,-0.752 v -7.765 c -0.323,-0.376 -0.719,-0.723 -1.189,-1.036 m 19.921,-0.432 c -0.307,0 -0.604,0.005 -0.895,0.016 -0.291,0.007 -0.504,0.052 -0.641,0.134 -0.249,0.143 -0.436,0.318 -0.557,0.524 -0.12,0.207 -0.182,0.484 -0.182,0.834 0,1.174 0.014,2.259 0.04,3.25 0.027,0.991 0.041,2.127 0.041,3.411 0,0.898 -0.12,1.631 -0.358,2.201 -0.236,0.57 -0.585,1.02 -1.042,1.351 -0.458,0.341 -0.965,0.562 -1.528,0.667 -0.56,0.103 -1.216,0.155 -1.971,0.155 -0.546,0 -1.108,-0.088 -1.681,-0.263 -0.575,-0.175 -1.062,-0.387 -1.467,-0.639 -0.466,-0.296 -0.844,-0.632 -1.137,-1.01 -0.292,-0.375 -0.437,-0.771 -0.437,-1.183 0,-0.395 0.106,-0.753 0.316,-1.07 0.21,-0.319 0.541,-0.478 0.988,-0.478 0.503,0 0.896,0.13 1.178,0.391 0.282,0.258 0.425,0.547 0.425,0.862 0,0.295 -0.043,0.619 -0.128,0.968 -0.086,0.349 -0.128,0.615 -0.128,0.793 0.143,0.153 0.393,0.298 0.746,0.44 0.355,0.137 0.738,0.206 1.151,0.206 0.601,0 1.065,-0.123 1.394,-0.371 0.326,-0.247 0.578,-0.535 0.76,-0.867 0.162,-0.295 0.265,-0.61 0.314,-0.943 0.05,-0.33 0.075,-0.555 0.075,-0.672 v -1.332 c -0.431,-0.233 -1.263,-0.557 -2.495,-0.968 -1.234,-0.414 -2.054,-0.696 -2.456,-0.847 -0.323,-0.126 -0.669,-0.295 -1.036,-0.505 -0.368,-0.211 -0.666,-0.45 -0.888,-0.721 -0.288,-0.323 -0.502,-0.685 -0.646,-1.088 -0.145,-0.405 -0.216,-0.862 -0.216,-1.375 0,-0.985 0.321,-1.784 0.962,-2.394 0.641,-0.61 1.46,-0.916 2.457,-0.916 0.94,0 1.746,0.172 2.415,0.512 0.667,0.34 1.293,0.834 1.876,1.479 h 0.082 c 0.115,-0.627 0.383,-1.105 0.8,-1.43 0.418,-0.329 0.975,-0.492 1.675,-0.492 0.402,0 0.764,0.047 1.084,0.14 0.317,0.094 0.688,0.216 1.11,0.37 z m -4.777,1.593 c -0.332,-0.423 -0.741,-0.79 -1.226,-1.098 -0.484,-0.313 -1.044,-0.467 -1.681,-0.467 -0.601,0 -1.096,0.176 -1.487,0.527 -0.391,0.35 -0.586,0.898 -0.586,1.644 0,0.576 0.131,1.073 0.391,1.492 0.26,0.417 0.614,0.779 1.062,1.084 0.495,0.323 1.028,0.593 1.601,0.809 0.575,0.216 1.243,0.435 2.006,0.661 z m 20.628,-1.565 c -0.271,0.009 -0.566,0.028 -0.887,0.055 -0.324,0.027 -0.572,0.094 -0.742,0.2 -0.232,0.154 -0.409,0.339 -0.531,0.559 -0.122,0.22 -0.181,0.486 -0.181,0.8 V 1.534 l -0.204,0.202 -5.435,-0.297 V 0.605 c 0.492,-0.037 0.954,-0.092 1.38,-0.169 0.426,-0.077 0.764,-0.2 1.016,-0.37 0.223,-0.163 0.398,-0.399 0.523,-0.708 0.126,-0.31 0.19,-0.656 0.19,-1.031 V -6.3 c -0.43,0.244 -0.943,0.445 -1.539,0.601 -0.595,0.157 -1.201,0.236 -1.82,0.236 -0.826,0 -1.633,-0.179 -2.426,-0.539 -0.794,-0.358 -1.463,-0.839 -2.01,-1.44 -0.582,-0.645 -1.038,-1.398 -1.371,-2.26 -0.33,-0.861 -0.497,-1.773 -0.497,-2.731 0,-1.05 0.155,-2.01 0.465,-2.882 0.309,-0.868 0.727,-1.614 1.256,-2.233 0.519,-0.61 1.13,-1.082 1.834,-1.419 0.703,-0.336 1.43,-0.505 2.184,-0.505 0.726,0 1.432,0.166 2.116,0.497 0.685,0.333 1.263,0.759 1.727,1.281 l 0.107,-0.028 v -1.239 l 0.204,-0.188 4.641,0.296 z m -6.06,0.404 c -0.47,-0.313 -1.063,-0.471 -1.779,-0.471 -0.672,0 -1.253,0.153 -1.74,0.458 -0.489,0.305 -0.888,0.708 -1.202,1.21 -0.339,0.529 -0.582,1.102 -0.724,1.717 -0.145,0.614 -0.216,1.298 -0.216,2.053 0,0.94 0.097,1.799 0.289,2.576 0.193,0.775 0.454,1.414 0.786,1.916 0.349,0.52 0.749,0.92 1.2,1.198 0.453,0.28 0.948,0.416 1.485,0.416 0.467,0 0.873,-0.072 1.223,-0.221 0.348,-0.147 0.653,-0.334 0.914,-0.559 0.241,-0.224 0.443,-0.469 0.604,-0.74 0.159,-0.268 0.278,-0.52 0.349,-0.752 v -7.765 c -0.323,-0.376 -0.717,-0.723 -1.189,-1.036 m 28.531,-0.404 c -0.269,0.009 -0.564,0.028 -0.887,0.055 -0.324,0.027 -0.57,0.094 -0.74,0.2 -0.232,0.154 -0.412,0.339 -0.531,0.559 -0.121,0.22 -0.183,0.486 -0.183,0.8 V 1.534 l -0.202,0.202 -5.437,-0.297 V 0.605 c 0.494,-0.037 0.954,-0.092 1.38,-0.169 0.426,-0.077 0.766,-0.2 1.016,-0.37 0.225,-0.163 0.4,-0.399 0.526,-0.708 0.126,-0.31 0.187,-0.656 0.187,-1.031 V -6.3 c -0.429,0.244 -0.942,0.445 -1.539,0.601 -0.595,0.157 -1.202,0.236 -1.82,0.236 -0.823,0 -1.632,-0.179 -2.426,-0.539 -0.793,-0.358 -1.461,-0.839 -2.008,-1.44 -0.583,-0.645 -1.04,-1.398 -1.371,-2.26 -0.332,-0.861 -0.498,-1.773 -0.498,-2.731 0,-1.05 0.156,-2.01 0.464,-2.882 0.31,-0.868 0.728,-1.614 1.258,-2.233 0.519,-0.61 1.13,-1.082 1.834,-1.419 0.702,-0.336 1.43,-0.505 2.182,-0.505 0.726,0 1.432,0.166 2.117,0.497 0.687,0.333 1.262,0.759 1.727,1.281 l 0.107,-0.028 v -1.239 l 0.203,-0.188 4.641,0.296 z m -6.058,0.404 c -0.471,-0.313 -1.064,-0.471 -1.779,-0.471 -0.672,0 -1.253,0.153 -1.742,0.458 -0.488,0.305 -0.886,0.708 -1.201,1.21 -0.339,0.529 -0.582,1.102 -0.726,1.717 -0.143,0.614 -0.214,1.298 -0.214,2.053 0,0.94 0.096,1.799 0.29,2.576 0.191,0.775 0.454,1.414 0.784,1.916 0.35,0.52 0.749,0.92 1.202,1.198 0.454,0.28 0.947,0.416 1.485,0.416 0.466,0 0.874,-0.072 1.222,-0.221 0.347,-0.147 0.653,-0.334 0.913,-0.559 0.241,-0.224 0.443,-0.469 0.605,-0.74 0.161,-0.268 0.276,-0.52 0.348,-0.752 v -7.765 c -0.323,-0.376 -0.717,-0.723 -1.187,-1.036 m 18.196,2.166 c -0.538,-0.973 -1.096,-1.646 -1.675,-2.022 -0.578,-0.374 -1.267,-0.56 -2.065,-0.56 -0.782,0 -1.455,0.151 -2.019,0.452 -0.566,0.299 -1.022,0.712 -1.373,1.233 -0.358,0.539 -0.621,1.164 -0.785,1.874 -0.168,0.711 -0.251,1.501 -0.251,2.375 h 8.787 v 0.889 c 0,0.797 -0.1,1.536 -0.302,2.217 -0.203,0.684 -0.511,1.276 -0.922,1.778 -0.431,0.529 -0.993,0.946 -1.683,1.252 -0.69,0.304 -1.52,0.457 -2.488,0.457 -0.943,0 -1.791,-0.196 -2.55,-0.584 -0.759,-0.392 -1.393,-0.905 -1.905,-1.542 -0.53,-0.664 -0.931,-1.411 -1.204,-2.24 -0.274,-0.832 -0.412,-1.676 -0.412,-2.538 0,-0.959 0.13,-1.869 0.385,-2.731 0.256,-0.86 0.643,-1.614 1.164,-2.259 0.52,-0.649 1.182,-1.159 1.985,-1.535 0.803,-0.377 1.736,-0.566 2.805,-0.566 1.213,0 2.284,0.315 3.217,0.942 0.932,0.629 1.676,1.471 2.231,2.53 z m -8.168,4.482 c 0.055,1.396 0.393,2.483 1.016,3.264 0.623,0.785 1.405,1.175 2.349,1.175 0.564,0 1.027,-0.129 1.385,-0.389 0.359,-0.259 0.642,-0.592 0.848,-1.005 0.188,-0.385 0.324,-0.864 0.411,-1.435 0.084,-0.574 0.127,-1.109 0.127,-1.61 z m 30.156,10.657 c -1.123,0.476 -2.314,0.713 -3.58,0.713 -1.22,0 -2.388,-0.233 -3.506,-0.701 -1.117,-0.467 -2.097,-1.138 -2.94,-2.016 -0.853,-0.888 -1.52,-1.942 -2.004,-3.156 -0.486,-1.216 -0.727,-2.601 -0.727,-4.152 0,-1.419 0.232,-2.747 0.693,-3.99 0.463,-1.243 1.096,-2.3 1.905,-3.168 0.806,-0.888 1.773,-1.581 2.899,-2.08 1.126,-0.497 2.353,-0.746 3.68,-0.746 1.245,0 2.423,0.234 3.525,0.699 1.103,0.467 2.072,1.131 2.908,1.993 0.86,0.87 1.533,1.924 2.017,3.161 0.484,1.237 0.728,2.614 0.728,4.131 0,1.508 -0.238,2.883 -0.714,4.123 -0.475,1.243 -1.136,2.305 -1.978,3.185 -0.816,0.86 -1.784,1.528 -2.906,2.004 m -0.982,-17.426 c -0.773,-0.449 -1.638,-0.673 -2.598,-0.673 -1.023,0 -1.901,0.222 -2.637,0.666 -0.736,0.444 -1.346,1.061 -1.83,1.85 -0.503,0.809 -0.872,1.731 -1.102,2.773 -0.235,1.04 -0.353,2.205 -0.353,3.498 0,1.166 0.111,2.277 0.331,3.337 0.219,1.059 0.555,1.982 1.003,2.773 0.476,0.825 1.089,1.483 1.844,1.977 0.752,0.494 1.667,0.741 2.744,0.741 0.96,0 1.813,-0.213 2.557,-0.641 0.745,-0.426 1.363,-1.02 1.858,-1.782 0.492,-0.772 0.866,-1.704 1.122,-2.799 0.256,-1.094 0.383,-2.297 0.383,-3.606 0,-1.274 -0.114,-2.426 -0.343,-3.458 -0.228,-1.031 -0.594,-1.956 -1.097,-2.772 -0.483,-0.808 -1.111,-1.435 -1.882,-1.884 m 21.731,11.854 h -5.078 v -0.859 c 0.127,-0.019 0.288,-0.051 0.485,-0.097 0.197,-0.043 0.4,-0.11 0.605,-0.2 0.207,-0.089 0.383,-0.195 0.532,-0.316 0.147,-0.119 0.222,-0.257 0.222,-0.409 0,-0.217 -0.04,-0.428 -0.122,-0.641 -0.08,-0.209 -0.166,-0.435 -0.256,-0.677 -0.564,-1.417 -1.092,-2.696 -1.58,-3.845 -0.488,-1.147 -0.896,-2.105 -1.218,-2.876 -0.422,1.003 -0.966,2.327 -1.637,3.965 -0.671,1.639 -1.19,2.917 -1.556,3.833 -0.046,0.143 -0.09,0.269 -0.135,0.382 -0.045,0.113 -0.067,0.182 -0.067,0.209 0,0.177 0.202,0.32 0.607,0.422 0.401,0.104 0.739,0.159 1.007,0.169 v 0.94 h -6.139 v -0.887 c 0.403,-0.063 0.804,-0.208 1.204,-0.437 0.399,-0.228 0.687,-0.549 0.867,-0.962 0.772,-1.822 1.515,-3.6 2.235,-5.336 0.716,-1.736 1.5,-3.657 2.354,-5.765 h 1.049 c 0.171,0.519 0.356,1.061 0.56,1.628 0.201,0.564 0.39,1.055 0.571,1.465 0.61,1.435 1.197,2.806 1.762,4.112 0.566,1.303 1.114,2.558 1.642,3.762 0.26,0.557 0.571,0.943 0.935,1.164 0.364,0.218 0.748,0.365 1.151,0.436 z m 7.011,-12.378 c -0.232,0.017 -0.442,0.052 -0.629,0.1 -0.188,0.05 -0.378,0.113 -0.575,0.196 -0.258,0.096 -0.448,0.251 -0.568,0.457 -0.119,0.205 -0.18,0.467 -0.18,0.78 v 10.818 l -0.188,0.188 -4.683,-0.295 v -0.886 c 0.269,-0.02 0.567,-0.069 0.89,-0.144 0.322,-0.073 0.569,-0.167 0.737,-0.276 0.235,-0.161 0.416,-0.359 0.545,-0.598 0.131,-0.236 0.196,-0.499 0.196,-0.784 v -8.185 c 0,-0.323 -0.06,-0.584 -0.18,-0.788 -0.122,-0.2 -0.307,-0.342 -0.561,-0.423 -0.16,-0.052 -0.351,-0.089 -0.569,-0.108 -0.22,-0.018 -0.433,-0.035 -0.64,-0.052 v -0.888 h 6.405 z m -2.175,18.978 c -0.327,0.346 -0.745,0.519 -1.256,0.519 -0.459,0 -0.856,-0.184 -1.192,-0.551 -0.337,-0.369 -0.504,-0.799 -0.504,-1.291 0,-0.468 0.167,-0.882 0.504,-1.246 0.336,-0.363 0.733,-0.544 1.192,-0.544 0.493,0 0.907,0.191 1.244,0.571 0.338,0.381 0.505,0.827 0.505,1.338 0,0.459 -0.165,0.858 -0.493,1.204 m 14.662,-16.167 c -0.538,-0.973 -1.097,-1.646 -1.675,-2.022 -0.579,-0.374 -1.268,-0.56 -2.066,-0.56 -0.78,0 -1.455,0.151 -2.019,0.452 -0.566,0.299 -1.022,0.712 -1.373,1.233 -0.358,0.539 -0.619,1.164 -0.787,1.874 -0.165,0.711 -0.249,1.501 -0.249,2.375 h 8.788 v 0.889 c 0,0.797 -0.101,1.536 -0.303,2.217 -0.202,0.684 -0.509,1.276 -0.921,1.778 -0.432,0.529 -0.992,0.946 -1.683,1.252 -0.691,0.304 -1.52,0.457 -2.489,0.457 -0.943,0 -1.791,-0.196 -2.549,-0.584 -0.759,-0.392 -1.394,-0.905 -1.905,-1.542 -0.528,-0.664 -0.93,-1.411 -1.204,-2.24 -0.273,-0.832 -0.412,-1.676 -0.412,-2.538 0,-0.959 0.129,-1.869 0.385,-2.731 0.255,-0.86 0.644,-1.614 1.164,-2.259 0.52,-0.649 1.181,-1.159 1.984,-1.535 0.803,-0.377 1.738,-0.566 2.806,-0.566 1.212,0 2.283,0.315 3.217,0.942 0.931,0.629 1.677,1.471 2.234,2.53 z m -8.169,4.482 c 0.055,1.396 0.393,2.483 1.016,3.264 0.624,0.785 1.408,1.175 2.349,1.175 0.564,0 1.027,-0.129 1.386,-0.389 0.358,-0.259 0.641,-0.592 0.848,-1.005 0.189,-0.385 0.324,-0.864 0.411,-1.435 0.085,-0.574 0.126,-1.109 0.126,-1.61 z m 25.176,-7.052 c -0.268,0.009 -0.563,0.028 -0.887,0.055 -0.323,0.027 -0.57,0.094 -0.74,0.2 -0.234,0.154 -0.41,0.339 -0.532,0.559 -0.121,0.22 -0.18,0.486 -0.18,0.8 V 1.534 l -0.203,0.202 -5.436,-0.297 V 0.605 c 0.493,-0.037 0.953,-0.092 1.38,-0.169 0.426,-0.077 0.765,-0.2 1.014,-0.37 0.226,-0.163 0.4,-0.399 0.526,-0.708 0.126,-0.31 0.189,-0.656 0.189,-1.031 V -6.3 c -0.43,0.244 -0.944,0.445 -1.539,0.601 -0.597,0.157 -1.203,0.236 -1.822,0.236 -0.823,0 -1.632,-0.179 -2.425,-0.539 -0.794,-0.358 -1.462,-0.839 -2.007,-1.44 -0.583,-0.645 -1.041,-1.398 -1.373,-2.26 -0.331,-0.861 -0.496,-1.773 -0.496,-2.731 0,-1.05 0.155,-2.01 0.464,-2.882 0.308,-0.868 0.726,-1.614 1.256,-2.233 0.52,-0.61 1.131,-1.082 1.833,-1.419 0.703,-0.336 1.433,-0.505 2.185,-0.505 0.724,0 1.43,0.166 2.117,0.497 0.684,0.333 1.26,0.759 1.725,1.281 l 0.109,-0.028 v -1.239 l 0.201,-0.188 4.641,0.296 z m -6.058,0.404 c -0.469,-0.313 -1.063,-0.471 -1.779,-0.471 -0.672,0 -1.252,0.153 -1.74,0.458 -0.488,0.305 -0.888,0.708 -1.202,1.21 -0.34,0.529 -0.583,1.102 -0.725,1.717 -0.143,0.614 -0.216,1.298 -0.216,2.053 0,0.94 0.097,1.799 0.29,2.576 0.193,0.775 0.453,1.414 0.785,1.916 0.349,0.52 0.75,0.92 1.203,1.198 0.45,0.28 0.945,0.416 1.483,0.416 0.465,0 0.874,-0.072 1.222,-0.221 0.35,-0.147 0.653,-0.334 0.913,-0.559 0.242,-0.224 0.443,-0.469 0.605,-0.74 0.161,-0.268 0.276,-0.52 0.35,-0.752 v -7.765 c -0.323,-0.376 -0.72,-0.723 -1.189,-1.036 m 18.484,10.233 c -1.207,1.252 -2.742,1.878 -4.6,1.878 -1.958,0 -3.541,-0.659 -4.749,-1.979 -1.208,-1.318 -1.811,-3.012 -1.811,-5.086 0,-1.077 0.173,-2.047 0.519,-2.913 0.346,-0.865 0.811,-1.6 1.394,-2.201 0.591,-0.611 1.27,-1.073 2.034,-1.391 0.763,-0.319 1.567,-0.477 2.412,-0.477 1.015,0 1.929,0.174 2.748,0.522 0.817,0.352 1.535,0.884 2.153,1.603 0.549,0.627 0.971,1.393 1.269,2.293 0.294,0.903 0.442,1.818 0.442,2.751 0,2.084 -0.602,3.749 -1.811,5 m -1.958,-9.52 c -0.655,-1.084 -1.545,-1.629 -2.67,-1.629 -0.681,0 -1.255,0.165 -1.718,0.493 -0.462,0.326 -0.846,0.778 -1.151,1.35 -0.307,0.575 -0.53,1.228 -0.669,1.959 -0.138,0.732 -0.208,1.528 -0.208,2.388 0,0.655 0.057,1.332 0.176,2.034 0.115,0.699 0.319,1.321 0.605,1.87 0.307,0.591 0.704,1.058 1.192,1.399 0.491,0.342 1.081,0.51 1.773,0.51 0.677,0 1.245,-0.165 1.713,-0.504 0.468,-0.335 0.846,-0.783 1.133,-1.338 0.269,-0.52 0.472,-1.155 0.606,-1.904 0.134,-0.749 0.202,-1.46 0.202,-2.134 0,-1.909 -0.328,-3.41 -0.984,-4.494"
             style="fill:#00837c;fill-opacity:1;fill-rule:nonzero;stroke:none"
             id="path229" />
        </g>
      </g>
    </g>
  </g>
</svg>
